<svg xmlns="http://www.w3.org/2000/svg" width="800" height="146" viewBox="0 0 800 146" version="1.1"><path d="M 171 73 L 171 146 176.500 146 L 182 146 182 73 L 182 0 176.500 0 L 171 0 171 73" stroke="none" fill="#ed2647" fill-rule="evenodd"/><path d="M 295 9 L 295 18 310 18 L 325 18 325 9 L 325 0 310 0 L 295 0 295 9 M 211 19 L 211 33 227.750 32.982 L 244.500 32.964 250.239 23.232 C 253.395 17.879, 257.133 11.588, 258.545 9.250 L 261.113 5 236.057 5 L 211 5 211 19 M 237.217 56.475 L 208.933 107.891 209.217 119.196 L 209.500 130.500 219.341 130.500 L 229.183 130.500 257.582 80 L 285.981 29.500 285.990 17.250 L 286 5 275.750 5.029 L 265.500 5.058 237.217 56.475 M 471.003 31.750 C 505.082 115.624, 510.809 129.435, 511.614 129.688 C 512.101 129.841, 517.112 118.268, 522.750 103.969 L 533 77.972 533 46.986 C 533 29.944, 532.663 16.009, 532.250 16.019 C 531.837 16.030, 527.675 25.661, 523 37.423 C 518.325 49.185, 514.272 58.667, 513.994 58.496 C 513.716 58.324, 508.556 46.217, 502.528 31.592 L 491.569 5 475.852 5 L 460.134 5 471.003 31.750 M 536 68 L 536 131 551 131 L 566 131 566 68 L 566 5 551 5 L 536 5 536 68 M 763.223 11.960 L 749 18.920 749 24.460 C 749 29.961, 748.979 30, 745.970 30 L 742.940 30 743.220 42.750 L 743.500 55.500 746.250 55.816 L 749 56.133 749.018 80.816 L 749.035 105.500 757.768 118.246 L 766.500 130.991 782 130.746 L 797.500 130.500 797.500 118 L 797.500 105.500 788.250 105.212 L 779 104.925 779 54.962 C 779 27.483, 778.650 5, 778.223 5 C 777.795 5, 771.045 8.132, 763.223 11.960 M 460 73.800 L 460 131 474 131 L 488 131 488 106.828 L 488 82.656 474.902 50.578 C 467.698 32.935, 461.398 18.073, 460.902 17.550 C 460.365 16.985, 460 39.779, 460 73.800 M 295 80.500 L 295 131 310 131 L 325 131 325 80.500 L 325 30 310 30 L 295 30 295 80.500 M 337.667 30.667 C 337.300 31.033, 337 57.133, 337 88.667 L 337 146 352 146 L 367 146 367 88 L 367 30 352.667 30 C 344.783 30, 338.033 30.300, 337.667 30.667 M 375.037 35.945 C 371.264 41.501, 371 42.352, 371 48.945 L 371 56 377 56 L 383 56 383 81.500 L 383 107 377 107 L 371 107 371 119 L 371 131 383.250 130.992 L 395.500 130.984 404.247 118.242 L 412.994 105.500 412.997 80.329 L 413 55.157 404.299 42.579 L 395.597 30 387.336 30 L 379.075 30 375.037 35.945 M 588.204 36.055 C 584.256 41.775, 584 42.569, 584 49.073 L 584 56 603.988 56 L 623.976 56 624.238 93.250 L 624.500 130.500 638.750 130.777 L 653 131.055 653 92.772 L 653 54.488 644.724 42.494 L 636.447 30.500 614.427 30.231 L 592.407 29.963 588.204 36.055 M 665 80.500 L 665 131 680 131 L 695 131 695 80.500 L 695 30 680 30 L 665 30 665 80.500 M 703.663 36.763 C 699.334 43.043, 699 43.973, 699 49.763 L 699 56 705 56 L 711 56 711 68 L 711 80 725.500 80 L 740 80 740 66.424 L 740 52.849 733.250 41.451 L 726.500 30.053 717.413 30.026 L 708.326 30 703.663 36.763 M 782.220 42.750 L 782.500 55.500 790.500 55.500 L 798.500 55.500 798.780 42.750 L 799.060 30 790.500 30 L 781.940 30 782.220 42.750 M 583.680 80.362 L 578 88.725 578 101.423 L 578 114.121 583.750 122.520 L 589.500 130.920 600.662 130.960 L 611.824 131 616.412 124.571 C 620.544 118.780, 621 117.588, 621 112.571 L 621 107 613.500 107 L 606 107 606 98.500 L 606 90 613.500 90 L 621 90 621 81 L 621 72 605.180 72 L 589.361 72 583.680 80.362 M 250.056 103.500 C 249.468 104.259, 236.759 125.837, 234.300 130.250 C 234.070 130.662, 245.396 131, 259.468 131 L 285.055 131 284.777 116.923 L 284.500 102.847 267.665 102.673 C 257.411 102.568, 250.527 102.891, 250.056 103.500" stroke="none" fill="#000000" fill-rule="evenodd"/><path d="M 47.035 2.934 C 46.466 3.998, 46 8.723, 46 13.434 L 46 22 33.400 22 L 20.800 22 17.490 25.310 C 15.133 27.667, 13.993 29.900, 13.533 33.060 C 13.178 35.502, 13.025 59.100, 13.194 85.500 C 13.475 129.650, 13.646 133.767, 15.316 136.829 C 18.486 142.638, 20.939 143.067, 49.259 142.767 L 74.500 142.500 74.805 137.750 L 75.110 133 48.755 133 C 29.590 133, 22.073 132.673, 21.200 131.800 C 19.471 130.071, 19.471 33.929, 21.200 32.200 C 23.037 30.363, 112.326 30.483, 113.854 32.324 C 114.542 33.153, 115.056 40.551, 115.227 52.074 L 115.500 70.500 118.750 70.813 L 122 71.127 122 52.807 C 122 32.756, 121.382 29.052, 117.333 24.825 C 114.638 22.013, 114.568 22, 101.813 22 L 89 22 89 13.434 C 89 0.227, 90.336 1, 67.500 1 C 49.314 1, 48.004 1.124, 47.035 2.934 M 53 16 L 53 22 67.750 22.002 L 82.500 22.004 82.161 16.002 L 81.822 10 67.411 10 L 53 10 53 16 M 97.667 74.667 C 97.300 75.033, 97 76.354, 97 77.602 C 97 78.849, 96.535 81.094, 95.966 82.589 L 94.932 85.309 92.161 82.655 C 90.637 81.195, 89.120 80, 88.789 80 C 88.003 80, 81.587 88.972, 80.703 91.308 C 80.305 92.359, 80.814 94.675, 81.920 96.842 C 84.032 100.983, 83.254 104, 80.073 104 C 76.778 104, 75.898 106.422, 76.206 114.645 C 76.492 122.254, 76.587 122.521, 79.500 123.894 C 83.807 125.925, 84.064 126.815, 81.727 131.625 L 79.637 135.927 83.069 140.961 C 86.792 146.424, 89.765 147.427, 93.150 144.364 C 94.824 142.849, 95.005 142.849, 95.586 144.364 C 95.967 145.357, 97.351 146, 99.107 146 C 101.655 146, 102 145.642, 102 143 C 102 137.461, 94.771 133.087, 91.103 136.407 C 89.523 137.837, 89.130 137.861, 88.081 136.597 C 87.127 135.448, 87.221 134.473, 88.531 131.941 C 89.959 129.179, 90.015 128.103, 88.938 124.119 C 87.426 118.525, 86.342 117, 83.878 117 C 82.458 117, 82 116.268, 82 114 C 82 111.732, 82.458 111, 83.878 111 C 86.342 111, 87.426 109.475, 88.938 103.881 C 90.015 99.897, 89.959 98.821, 88.531 96.059 C 87.217 93.518, 87.125 92.554, 88.087 91.395 C 89.136 90.131, 89.606 90.220, 91.555 92.052 C 93.743 94.107, 93.895 94.118, 96.655 92.405 C 100.701 89.894, 102 88.031, 102 84.736 C 102 80.496, 105.390 81.384, 105.812 85.734 C 106.099 88.698, 107.717 90.488, 112.714 93.373 C 113.385 93.760, 114.882 93.118, 116.064 91.936 C 119.227 88.773, 120.722 90.781, 119.027 95.917 C 117.922 99.266, 117.947 100.733, 119.184 105.197 C 120.445 109.751, 121.031 110.545, 123.326 110.816 C 125.545 111.079, 126 111.632, 126 114.066 C 126 116.270, 125.533 117, 124.122 117 C 121.678 117, 120.488 118.552, 118.944 123.753 C 117.915 127.219, 117.928 128.750, 119.011 132.033 C 120.022 135.097, 120.061 136.339, 119.175 137.225 C 118.290 138.110, 117.523 137.866, 115.972 136.201 L 113.934 134.013 110.217 136.357 C 107.196 138.263, 106.442 139.385, 106.190 142.351 C 105.919 145.538, 106.158 146, 108.079 146 C 109.289 146, 110.892 145.213, 111.640 144.250 C 112.937 142.583, 113.051 142.583, 114.050 144.250 C 114.659 145.265, 116.302 146, 117.963 146 C 120.170 146, 121.535 145.037, 123.913 141.803 C 127.305 137.191, 127.660 134.778, 125.500 131 C 123.236 127.039, 123.654 125.235, 127.008 124.498 C 130.952 123.632, 132 121.428, 132 114 C 132 106.545, 130.994 104.449, 127.036 103.657 C 123.632 102.976, 123.187 101.046, 125.500 97 C 126.286 95.625, 126.945 93.706, 126.965 92.735 C 127.012 90.384, 120.062 80, 118.442 80 C 117.741 80, 116.297 81.194, 115.235 82.652 C 112.838 85.942, 111 85.018, 111 80.523 C 111 74.602, 110.360 74, 104.060 74 C 100.910 74, 98.033 74.300, 97.667 74.667 M 97.898 95.251 C 86.859 102.566, 86.859 125.434, 97.898 132.749 C 104.580 137.176, 111.497 134.426, 115.545 125.732 C 120.527 115.031, 117.597 100.004, 109.561 95.038 C 105.299 92.404, 102.108 92.462, 97.898 95.251 M 98.997 103.850 C 93.973 108.873, 93.802 118.234, 98.629 123.971 C 106.880 133.776, 116.779 117.667, 110.133 105.249 C 107.527 100.379, 103.032 99.814, 98.997 103.850" stroke="none" fill="#5caff1" fill-rule="evenodd"/></svg>